# xmcd
#
# Track frame offsets: 
#        150
#        17763
#        35495
#        49178
#        69776
#        80946
#        95210
#        115971
#        130975
#        146544
#        159563
#        184476
#
# Disc length: 2817 seconds
#
# Revision: 0
# Processed by: cddbd v1.5.2PL0 Copyright (c) Steve Scherf et al.
# Submitted via: ExactAudioCopyFreeDBPlugin 1.0
#
DISCID=ae0aff0c
DTITLE=The Tractors - Rockin' It! (Best Of The Tractors)
DYEAR=2002
DGENRE=Pop/Rock
TTITLE0=The Tulsa Shuffle
TTITLE1=Baby Likes to Rock It
TTITLE2=Badly Bent
TTITLE3=The Blue Collar Rock
TTITLE4=Doreen
TTITLE5=I've Had Enough
TTITLE6=Tryin' to Get to New Orleans
TTITLE7=Shortenin' Bread
TTITLE8=Linda Lou
TTITLE9=With a Girl Like You
TTITLE10=The Elvis Thing
TTITLE11=Foot Stomp Stompin'
EXTD=
EXTT0=
EXTT1=
EXTT2=
EXTT3=
EXTT4=
EXTT5=
EXTT6=
EXTT7=
EXTT8=
EXTT9=
EXTT10=
EXTT11=
PLAYORDER=
